<?xml version="1.0" encoding="UTF-8"?>
<svg width="16px" height="15px" viewBox="0 0 16 15" version="1.1" xmlns="http://www.w3.org/2000/svg" xmlns:xlink="http://www.w3.org/1999/xlink">
    <title>形状备份</title>
    <g id="控件" stroke="none" stroke-width="1" fill="none" fill-rule="evenodd">
        <g id="2.导航/3.PageHeader页头/3.带面包屑-常规" transform="translate(-237.000000, -220.000000)" fill="#49AA19" fill-rule="nonzero">
            <g id="编组-4" transform="translate(237.941176, 211.000000)">
                <g id="下载" transform="translate(0.000000, 9.385621)">
                    <path d="M11.6006723,0 C11.8769748,0 12.2268908,0.18907563 12.3811765,0.420504202 L13.8373109,2.60470588 C13.9921008,2.83663866 14.1176471,3.24655462 14.1176471,3.53042017 L14.1176471,13.1137815 C14.1176471,13.6684034 13.6638655,14.1176471 13.1137815,14.1176471 L1.00386555,14.1176471 C0.449747899,14.1176471 0,13.6689076 0,13.1137815 L0,3.53042017 C0,3.25159664 0.12605042,2.83613445 0.280336134,2.60470588 L1.73647059,0.420504202 C1.8912605,0.188571429 2.24621849,0 2.51697479,0 Z M9.07563025,4.53636549 L5.04201681,4.53636549 L5.04201681,6.55317221 L2.01680672,6.55317221 L6.71243697,11.4469537 C6.90352941,11.6466176 7.21512605,11.6461134 7.40521008,11.4479621 L12.1008403,6.55317221 L9.07563025,6.55317221 L9.07563025,4.53636549 Z M11.3445378,1.00840336 L2.77310924,1.00840336 L1.51260504,2.5210084 L12.605042,2.5210084 L11.3445378,1.00840336 Z" id="形状备份"></path>
                </g>
            </g>
        </g>
    </g>
</svg>