<?xml version="1.0" encoding="UTF-8"?>
<svg width="16px" height="16px" viewBox="0 0 16 16" version="1.1" xmlns="http://www.w3.org/2000/svg" xmlns:xlink="http://www.w3.org/1999/xlink">
	<title>
		图标
	</title>
	<g id="OS迁移平台-UI-Beta1.0备份" stroke="none" stroke-width="1" fill="none" fill-rule="evenodd">
		<g id="0机器组详情-弹窗位置备份" transform="translate(-487.000000, -95.000000)">
			<g id="展示-带图标" transform="translate(486.000000, 92.000000)">
				<g id="图标" transform="translate(1.000000, 3.000000)">
					<rect id="矩形" fill="#000000" fill-rule="nonzero" opacity="0" x="0" y="0" width="16" height="16">
					</rect>
					<rect id="矩形" fill="#000000" fill-rule="nonzero" opacity="0" x="2" y="2" width="11.9882927" height="11.9882927">
					</rect>
					<path d="M10.7276376,5.34227177 C10.9818537,5.08939372 10.9818537,4.67729616 10.7276376,4.42441812 L9.79239024,3.48917073 L9.79372823,3.49050871 C9.5462021,3.24298258 9.12072475,2.81750523 8.51863415,2.21675262 C8.23498258,1.93979094 7.77605575,1.94246691 7.49508014,2.22344251 L2.22611847,7.48839024 C2.08996122,7.62362369 2.01339073,7.80759494 2.01339073,7.99949826 C2.01339073,8.19140157 2.08996122,8.37537283 2.22611847,8.51060628 L7.49374216,13.774216 C7.77653032,14.0565208 8.23450801,14.0565208 8.51729616,13.774216 L10.7262997,11.5665505 C10.9805157,11.3136725 10.9805157,10.9015749 10.7262997,10.6486969 C10.4721014,10.395765 10.0613062,10.395765 9.80710802,10.6486969 L8.13463415,12.3238467 C8.06505924,12.3934216 7.95668293,12.3934216 7.88710802,12.3238467 L3.67916376,8.11991637 C3.60958885,8.05034146 3.60958885,7.94196516 3.67916376,7.87239024 L7.88577003,3.66845993 C7.89112195,3.66310802 7.89781184,3.65909408 7.90316376,3.65374216 C7.97273867,3.59888502 8.06907317,3.60423694 8.13329616,3.66845993 L9.808446,5.34227177 C10.062662,5.5964878 10.4747596,5.5964878 10.7276376,5.34227177 Z M6.61067595,8.02625784 C6.61067595,8.5339086 6.88175941,9.00299725 7.32181183,9.25682264 C7.76186426,9.51064802 8.30403121,9.51064802 8.74408363,9.25682264 C9.18413606,9.00299725 9.45521951,8.5339086 9.45521951,8.02625784 C9.45521951,7.24149776 8.81844675,6.60532403 8.03294773,6.60532403 C7.24744872,6.60532403 6.61067595,7.24149776 6.61067595,8.02625784 L6.61067595,8.02625784 Z M13.7849199,7.5097979 L12.1405436,5.87344948 C11.8863275,5.62057143 11.47423,5.62057143 11.2213519,5.87478746 C11.0992832,5.99631438 11.03066,6.16146576 11.03066,6.33371429 C11.03066,6.50596282 11.0992832,6.6711142 11.2213519,6.79264112 L12.3318746,7.90182579 C12.4014495,7.9714007 12.4014495,8.07977701 12.3318746,8.14935192 L11.2374077,9.24248083 C11.115339,9.36400775 11.0467158,9.52915913 11.0467158,9.70140766 C11.0467158,9.87365619 11.115339,10.0388076 11.2374077,10.1603345 C11.4916059,10.4132663 11.9024011,10.4132663 12.1565993,10.1603345 L13.7862578,8.53201394 C13.9219406,8.3964443 13.9980647,8.21243242 13.9978143,8.02062814 C13.9975626,7.82882386 13.9209571,7.64501189 13.7849199,7.5097979 L13.7849199,7.5097979 Z" id="形状" fill-opacity="1" fill="#1890ff">
					</path>
				</g>
			</g>
		</g>
	</g>
</svg>
