<?xml version="1.0" encoding="UTF-8"?>
<svg width="16px" height="16px" viewBox="0 0 16 16" version="1.1" xmlns="http://www.w3.org/2000/svg" xmlns:xlink="http://www.w3.org/1999/xlink">
    <title>待迁移机器图标</title>
    <g id="OS迁移平台-UI-Beta1.1" stroke="none" stroke-width="1" fill="none" fill-rule="evenodd">
        <g id="OS迁移平台-Dashboard" transform="translate(-1030.000000, -224.000000)" fill="#FF4D4F" fill-rule="nonzero">
            <path d="M1042,232.678571 L1034,232.678571 C1033.84286,232.678571 1033.71429,232.807143 1033.71429,232.964286 L1033.71429,236.107143 C1033.71429,236.264286 1033.84286,236.392857 1034,236.392857 L1042,236.392857 C1042.15714,236.392857 1042.28571,236.264286 1042.28571,236.107143 L1042.28571,232.964286 C1042.28571,232.807143 1042.15714,232.678571 1042,232.678571 Z M1041,235.107143 L1035,235.107143 L1035,233.964286 L1041,233.964286 L1041,235.107143 Z M1044.71429,237.428571 C1044.00357,237.428571 1043.42857,238.003571 1043.42857,238.714286 C1043.42857,239.425 1044.00357,240 1044.71429,240 C1045.425,240 1046,239.425 1046,238.714286 C1046,238.003571 1045.425,237.428571 1044.71429,237.428571 Z M1044.71429,239.142857 C1044.47679,239.142857 1044.28571,238.951786 1044.28571,238.714286 C1044.28571,238.476786 1044.47679,238.285714 1044.71429,238.285714 C1044.95179,238.285714 1045.14286,238.476786 1045.14286,238.714286 C1045.14286,238.951786 1044.95179,239.142857 1044.71429,239.142857 Z M1042,227.607143 L1034,227.607143 C1033.84286,227.607143 1033.71429,227.735714 1033.71429,227.892857 L1033.71429,231.035714 C1033.71429,231.192857 1033.84286,231.321429 1034,231.321429 L1042,231.321429 C1042.15714,231.321429 1042.28571,231.192857 1042.28571,231.035714 L1042.28571,227.892857 C1042.28571,227.735714 1042.15714,227.607143 1042,227.607143 Z M1041,230.035714 L1035,230.035714 L1035,228.892857 L1041,228.892857 L1041,230.035714 Z M1044.71429,226.571429 C1045.425,226.571429 1046,225.996429 1046,225.285714 C1046,224.575 1045.425,224 1044.71429,224 C1044.00357,224 1043.42857,224.575 1043.42857,225.285714 C1043.42857,225.996429 1044.00357,226.571429 1044.71429,226.571429 Z M1044.71429,224.857143 C1044.95179,224.857143 1045.14286,225.048214 1045.14286,225.285714 C1045.14286,225.523214 1044.95179,225.714286 1044.71429,225.714286 C1044.47679,225.714286 1044.28571,225.523214 1044.28571,225.285714 C1044.28571,225.048214 1044.47679,224.857143 1044.71429,224.857143 Z M1031.28571,224 C1030.575,224 1030,224.575 1030,225.285714 C1030,225.996429 1030.575,226.571429 1031.28571,226.571429 C1031.99643,226.571429 1032.57143,225.996429 1032.57143,225.285714 C1032.57143,224.575 1031.99643,224 1031.28571,224 Z M1031.28571,225.714286 C1031.04821,225.714286 1030.85714,225.523214 1030.85714,225.285714 C1030.85714,225.048214 1031.04821,224.857143 1031.28571,224.857143 C1031.52321,224.857143 1031.71429,225.048214 1031.71429,225.285714 C1031.71429,225.523214 1031.52321,225.714286 1031.28571,225.714286 Z M1031.28571,237.428571 C1030.575,237.428571 1030,238.003571 1030,238.714286 C1030,239.425 1030.575,240 1031.28571,240 C1031.99643,240 1032.57143,239.425 1032.57143,238.714286 C1032.57143,238.003571 1031.99643,237.428571 1031.28571,237.428571 Z M1031.28571,239.142857 C1031.04821,239.142857 1030.85714,238.951786 1030.85714,238.714286 C1030.85714,238.476786 1031.04821,238.285714 1031.28571,238.285714 C1031.52321,238.285714 1031.71429,238.476786 1031.71429,238.714286 C1031.71429,238.951786 1031.52321,239.142857 1031.28571,239.142857 Z" id="待迁移机器图标"></path>
        </g>
    </g>
</svg>