<?xml version="1.0" encoding="UTF-8"?>
<svg width="16px" height="15px" viewBox="0 0 16 15" version="1.1" xmlns="http://www.w3.org/2000/svg" xmlns:xlink="http://www.w3.org/1999/xlink">
    <title>上传</title>
    <g id="控件" stroke="none" stroke-width="1" fill="none" fill-rule="evenodd">
        <g id="2.导航/3.PageHeader页头/3.带面包屑-常规" transform="translate(-24.000000, -219.000000)" fill="#D89614" fill-rule="nonzero">
            <g id="编组-3" transform="translate(24.941176, 211.000000)">
                <g id="上传" transform="translate(0.000000, 8.058824)">
                    <path d="M1.51260504,2.5210084 L2.77310924,1.00840336 L11.3445378,1.00840336 L12.605042,2.5210084 L1.51260504,2.5210084 Z M9.07563025,9.57983193 L9.07563025,11.5966387 L5.04201681,11.5966387 L5.04201681,9.57983193 L2.01680672,9.57983193 L6.71243697,4.68605042 C6.90352941,4.48638655 7.21512605,4.48689076 7.40521008,4.68504202 L12.1008403,9.57983193 L9.07563025,9.57983193 Z M13.8373109,2.60470588 L12.3811765,0.420504202 C12.2268908,0.18907563 11.8769748,0 11.6006723,0 L2.51697479,0 C2.24621849,0 1.8912605,0.188571429 1.73647059,0.420504202 L0.280336134,2.60470588 C0.12605042,2.83613445 0,3.25159664 0,3.53042017 L0,13.1137815 C0,13.6689076 0.449747899,14.1176471 1.00386555,14.1176471 L13.1137815,14.1176471 C13.6638655,14.1176471 14.1176471,13.6684034 14.1176471,13.1137815 L14.1176471,3.53042017 C14.1176471,3.24655462 13.9921008,2.83663866 13.8373109,2.60470588" id="形状"></path>
                </g>
            </g>
        </g>
    </g>
</svg>